<?xml version="1.0" standalone="no"?>
<!DOCTYPE svg PUBLIC "-//W3C//DTD SVG 20010904//EN"
 "http://www.w3.org/TR/2001/REC-SVG-20010904/DTD/svg10.dtd">
<svg version="1.0" xmlns="http://www.w3.org/2000/svg"
 width="512.000000pt" height="512.000000pt" viewBox="0 0 512.000000 512.000000"
 preserveAspectRatio="xMidYMid meet">
<metadata>
Created by potrace 1.14, written by Peter Selinger 2001-2017
</metadata>
<g transform="translate(0.000000,512.000000) scale(0.100000,-0.100000)"
fill="#000000" stroke="none">
<path d="M2331 5109 c-881 -78 -1669 -619 -2061 -1414 -129 -263 -195 -471
-241 -765 -33 -207 -33 -533 0 -740 46 -294 112 -502 241 -765 240 -488 631
-886 1112 -1134 749 -387 1612 -386 2358 0 487 253 872 647 1116 1144 125 255
196 484 241 775 24 161 24 539 0 700 -45 291 -116 520 -241 775 -244 497 -629
891 -1116 1144 -437 226 -923 323 -1409 280z m1315 -1268 c235 -42 423 -136
639 -319 106 -90 128 -123 122 -183 -7 -85 -68 -139 -155 -139 -42 0 -80 23
-182 110 -205 175 -403 250 -660 250 -207 0 -374 -48 -533 -154 -29 -19 -126
-96 -217 -171 -190 -157 -279 -220 -388 -274 -174 -87 -343 -124 -567 -124
-270 -1 -489 63 -696 203 -118 80 -271 212 -285 247 -32 75 -1 158 71 193 75
36 112 25 235 -77 246 -202 405 -264 680 -264 131 0 211 11 310 43 138 44 214
93 450 287 245 202 369 279 533 332 184 59 443 75 643 40z m-5 -787 c246 -45
406 -125 642 -318 53 -44 103 -93 112 -111 59 -125 -76 -261 -198 -199 -18 9
-68 47 -113 85 -227 190 -405 259 -674 259 -207 0 -364 -43 -515 -141 -39 -25
-146 -108 -240 -185 -205 -168 -250 -200 -357 -258 -172 -93 -361 -137 -588
-137 -275 0 -500 66 -706 207 -124 85 -262 204 -279 241 -35 72 -2 163 71 198
58 27 113 16 179 -36 240 -191 320 -239 475 -281 74 -20 108 -23 260 -23 149
0 187 3 255 22 170 47 254 97 500 300 205 169 279 220 399 278 176 84 311 112
537 114 104 1 185 -4 240 -15z m10 -789 c223 -39 384 -119 610 -301 117 -94
149 -134 149 -188 0 -97 -104 -177 -192 -147 -18 6 -89 56 -157 111 -197 158
-349 223 -560 240 -177 13 -353 -13 -487 -75 -104 -48 -161 -87 -359 -250 -99
-81 -214 -170 -255 -197 -206 -136 -423 -198 -690 -198 -336 0 -573 89 -859
324 -117 96 -133 116 -138 175 -8 88 57 161 144 161 56 0 63 -4 202 -116 132
-107 270 -182 396 -216 67 -18 108 -21 255 -22 205 0 276 15 426 89 98 48 147
83 376 272 211 174 348 254 525 307 68 20 111 28 278 50 52 7 251 -4 336 -19z"/>
</g>
</svg>
